<svg xmlns="http://www.w3.org/2000/svg" xmlns:xlink="http://www.w3.org/1999/xlink" width="500" zoomAndPan="magnify" viewBox="0 0 375 374.999991" height="500" preserveAspectRatio="xMidYMid meet" version="1.0"><defs><clipPath id="3f6cc68954"><path d="M 19.105469 19.488281 L 355.894531 19.488281 L 355.894531 355.511719 L 19.105469 355.511719 Z M 19.105469 19.488281 " clip-rule="nonzero"/></clipPath><clipPath id="4339de4a6a"><path d="M 28.535156 19.488281 L 346.464844 19.488281 C 351.671875 19.488281 355.894531 23.710938 355.894531 28.917969 L 355.894531 346.082031 C 355.894531 351.289062 351.671875 355.511719 346.464844 355.511719 L 28.535156 355.511719 C 23.328125 355.511719 19.105469 351.289062 19.105469 346.082031 L 19.105469 28.917969 C 19.105469 23.710938 23.328125 19.488281 28.535156 19.488281 Z M 28.535156 19.488281 " clip-rule="nonzero"/></clipPath><clipPath id="1da1c8e4d4"><path d="M 19.113281 19.488281 L 355.855469 19.488281 L 355.855469 355.488281 L 19.113281 355.488281 Z M 19.113281 19.488281 " clip-rule="nonzero"/></clipPath><clipPath id="d75c3a3248"><path d="M 28.539062 19.488281 L 346.460938 19.488281 C 351.667969 19.488281 355.886719 23.710938 355.886719 28.917969 L 355.886719 346.074219 C 355.886719 351.28125 351.667969 355.5 346.460938 355.5 L 28.539062 355.5 C 23.332031 355.5 19.113281 351.28125 19.113281 346.074219 L 19.113281 28.917969 C 19.113281 23.710938 23.332031 19.488281 28.539062 19.488281 Z M 28.539062 19.488281 " clip-rule="nonzero"/></clipPath><clipPath id="849df3ae33"><path d="M 0.234375 0.617188 L 37.980469 0.617188 L 37.980469 38.363281 L 0.234375 38.363281 Z M 0.234375 0.617188 " clip-rule="nonzero"/></clipPath><clipPath id="3410109df1"><path d="M 19.105469 0.617188 L 25.113281 13.484375 L 37.980469 19.488281 L 25.113281 25.496094 L 19.105469 38.363281 L 13.101562 25.496094 L 0.234375 19.488281 L 13.101562 13.484375 Z M 19.105469 0.617188 " clip-rule="nonzero"/></clipPath><clipPath id="08b189928c"><path d="M 0.234375 0.617188 L 37.734375 0.617188 L 37.734375 38.117188 L 0.234375 38.117188 Z M 0.234375 0.617188 " clip-rule="nonzero"/></clipPath><clipPath id="7d4de2fe3a"><path d="M 19.101562 0.617188 L 25.105469 13.480469 L 37.96875 19.484375 L 25.105469 25.488281 L 19.101562 38.351562 L 13.097656 25.488281 L 0.234375 19.484375 L 13.097656 13.480469 Z M 19.101562 0.617188 " clip-rule="nonzero"/></clipPath><clipPath id="af85358a7c"><path d="M 337.386719 95.390625 L 374.398438 95.390625 L 374.398438 132.402344 L 337.386719 132.402344 Z M 337.386719 95.390625 " clip-rule="nonzero"/></clipPath><clipPath id="341380b388"><path d="M 355.894531 95.390625 L 361.78125 108.007812 L 374.398438 113.894531 L 361.78125 119.785156 L 355.894531 132.402344 L 350.003906 119.785156 L 337.386719 113.894531 L 350.003906 108.007812 Z M 355.894531 95.390625 " clip-rule="nonzero"/></clipPath><clipPath id="8a4be4f8f9"><path d="M 337.386719 95.390625 L 374.136719 95.390625 L 374.136719 132.140625 L 337.386719 132.140625 Z M 337.386719 95.390625 " clip-rule="nonzero"/></clipPath><clipPath id="5fe906adc7"><path d="M 355.890625 95.390625 L 361.777344 108.003906 L 374.394531 113.894531 L 361.777344 119.78125 L 355.890625 132.398438 L 350.003906 119.78125 L 337.386719 113.894531 L 350.003906 108.003906 Z M 355.890625 95.390625 " clip-rule="nonzero"/></clipPath><clipPath id="964f3e8f74"><path d="M 77.652344 59.148438 L 303.402344 59.148438 L 303.402344 308.898438 L 77.652344 308.898438 Z M 77.652344 59.148438 " clip-rule="nonzero"/></clipPath></defs><g clip-path="url(#3f6cc68954)"><g clip-path="url(#4339de4a6a)"><path fill="#fffdf4" d="M 19.105469 19.488281 L 355.894531 19.488281 L 355.894531 355.511719 L 19.105469 355.511719 Z M 19.105469 19.488281 " fill-opacity="1" fill-rule="nonzero"/></g></g><g clip-path="url(#1da1c8e4d4)"><g clip-path="url(#d75c3a3248)"><path stroke-linecap="butt" transform="matrix(0.75, 0, 0, 0.75, 19.111336, 19.489388)" fill="none" stroke-linejoin="miter" d="M 12.570302 -0.00147545 L 436.466136 -0.00147545 C 443.408844 -0.00147545 449.033844 5.628733 449.033844 12.571441 L 449.033844 435.446442 C 449.033844 442.38915 443.408844 448.01415 436.466136 448.01415 L 12.570302 448.01415 C 5.627593 448.01415 0.00259339 442.38915 0.00259339 435.446442 L 0.00259339 12.571441 C 0.00259339 5.628733 5.627593 -0.00147545 12.570302 -0.00147545 Z M 12.570302 -0.00147545 " stroke="#000000" stroke-width="2" stroke-opacity="1" stroke-miterlimit="4"/></g></g><g clip-path="url(#849df3ae33)"><g clip-path="url(#3410109df1)"><path fill="#ffc691" d="M 0.234375 0.617188 L 37.980469 0.617188 L 37.980469 38.363281 L 0.234375 38.363281 Z M 0.234375 0.617188 " fill-opacity="1" fill-rule="nonzero"/></g></g><g clip-path="url(#08b189928c)"><g clip-path="url(#7d4de2fe3a)"><path stroke-linecap="butt" transform="matrix(0.75, 0, 0, 0.75, 0.233976, 0.616368)" fill="none" stroke-linejoin="miter" d="M 25.156784 0.00109285 L 33.161993 17.152136 L 50.313036 25.157345 L 33.161993 33.162553 L 25.156784 50.313596 L 17.151575 33.162553 L 0.000532312 25.157345 L 17.151575 17.152136 Z M 25.156784 0.00109285 " stroke="#000000" stroke-width="2" stroke-opacity="1" stroke-miterlimit="4"/></g></g><g clip-path="url(#af85358a7c)"><g clip-path="url(#341380b388)"><path fill="#d1ed9f" d="M 337.386719 95.390625 L 374.398438 95.390625 L 374.398438 132.402344 L 337.386719 132.402344 Z M 337.386719 95.390625 " fill-opacity="1" fill-rule="nonzero"/></g></g><g clip-path="url(#8a4be4f8f9)"><g clip-path="url(#5fe906adc7)"><path stroke-linecap="butt" transform="matrix(0.75, 0, 0, 0.75, 337.386604, 95.389431)" fill="none" stroke-linejoin="miter" d="M 24.67203 0.00159155 L 32.520989 16.819301 L 49.343906 24.673468 L 32.520989 32.522427 L 24.67203 49.345345 L 16.823071 32.522427 L 0.000153073 24.673468 L 16.823071 16.819301 Z M 24.67203 0.00159155 " stroke="#000000" stroke-width="2" stroke-opacity="1" stroke-miterlimit="4"/></g></g><path fill="#e1abe8" d="M 270.855469 158.082031 L 264.359375 192.5625 L 100.667969 98.074219 L 107.164062 63.59375 L 127.5 75.335938 C 123.953125 80.585938 121.753906 86.878906 121.753906 92.578125 C 121.753906 97.671875 123.550781 101.871094 126.800781 104.367188 C 128.796875 105.917969 131.246094 106.71875 133.894531 106.71875 C 135.09375 106.71875 136.34375 106.566406 137.59375 106.21875 C 140.242188 105.519531 141.839844 102.769531 141.089844 100.121094 C 140.390625 97.472656 137.644531 95.875 134.996094 96.625 C 134.445312 96.773438 133.394531 96.972656 132.796875 96.523438 C 132.246094 96.074219 131.648438 94.824219 131.648438 92.578125 C 131.648438 88.679688 133.445312 84.082031 136.09375 80.335938 L 223.6875 130.902344 C 220.089844 136.199219 217.789062 142.59375 217.789062 148.339844 C 217.789062 153.4375 219.589844 157.632812 222.835938 160.132812 C 224.835938 161.679688 227.285156 162.480469 229.933594 162.480469 C 231.132812 162.480469 232.378906 162.332031 233.628906 161.980469 C 236.277344 161.28125 237.878906 158.53125 237.128906 155.886719 C 236.429688 153.238281 233.679688 151.636719 231.03125 152.386719 C 230.480469 152.535156 229.433594 152.738281 228.832031 152.289062 C 228.285156 151.835938 227.683594 150.589844 227.683594 148.339844 C 227.683594 144.390625 229.53125 139.644531 232.28125 135.847656 Z M 270.855469 158.082031 " fill-opacity="1" fill-rule="nonzero"/><path fill="#fefefe" d="M 78.980469 212.699219 L 101.417969 93.925781 L 265.109375 188.414062 L 242.675781 307.1875 Z M 271.40625 158.53125 L 277.699219 154.886719 L 114.207031 60.449219 L 107.863281 64.09375 Z M 271.40625 158.53125 " fill-opacity="1" fill-rule="nonzero"/><path fill="#ffc691" d="M 156.679688 84.632812 L 147.636719 79.433594 C 147.734375 78.785156 147.785156 78.136719 147.785156 77.535156 C 147.785156 75.136719 147.085938 73.839844 146.488281 73.488281 C 145.886719 73.140625 144.386719 73.140625 142.238281 74.386719 C 136.59375 77.6875 131.695312 86.179688 131.695312 92.578125 C 131.695312 94.824219 132.296875 96.074219 132.847656 96.523438 C 133.445312 96.972656 134.496094 96.773438 135.042969 96.625 C 137.691406 95.925781 140.390625 97.472656 141.140625 100.121094 C 141.839844 102.769531 140.289062 105.46875 137.644531 106.21875 C 136.394531 106.566406 135.144531 106.71875 133.945312 106.71875 C 131.296875 106.71875 128.898438 105.917969 126.851562 104.367188 C 123.601562 101.871094 121.804688 97.671875 121.804688 92.578125 C 121.804688 82.632812 128.597656 70.890625 137.292969 65.84375 C 142.289062 62.945312 147.484375 62.597656 151.484375 64.945312 C 155.480469 67.242188 157.730469 71.839844 157.730469 77.585938 C 157.679688 79.835938 157.328125 82.234375 156.679688 84.632812 Z M 244.472656 304.136719 L 259.363281 283.25 L 302.085938 272.859375 L 278.300781 154.386719 L 271.65625 158.433594 Z M 252.71875 140.445312 L 243.671875 135.25 C 243.773438 134.597656 243.824219 133.949219 243.824219 133.347656 C 243.824219 130.949219 243.125 129.652344 242.523438 129.300781 C 241.925781 128.953125 240.425781 128.953125 238.277344 130.203125 C 232.679688 133.449219 227.734375 141.894531 227.734375 148.339844 C 227.734375 150.589844 228.332031 151.835938 228.882812 152.289062 C 229.484375 152.738281 230.53125 152.535156 231.082031 152.386719 C 233.730469 151.6875 236.429688 153.238281 237.175781 155.886719 C 237.878906 158.53125 236.328125 161.230469 233.679688 161.980469 C 232.429688 162.332031 231.179688 162.480469 229.980469 162.480469 C 227.332031 162.480469 224.933594 161.679688 222.886719 160.132812 C 219.640625 157.632812 217.839844 153.4375 217.839844 148.339844 C 217.839844 138.394531 224.636719 126.652344 233.328125 121.605469 C 238.328125 118.710938 243.523438 118.359375 247.519531 120.707031 C 251.519531 123.007812 253.765625 127.601562 253.765625 133.347656 C 253.765625 135.597656 253.417969 137.996094 252.71875 140.445312 Z M 252.71875 140.445312 " fill-opacity="1" fill-rule="nonzero"/><path fill="#d1ed9f" d="M 107.710938 119.609375 L 130.296875 132.949219 L 126.300781 153.585938 L 103.613281 140.296875 Z M 134.144531 158.183594 L 156.628906 171.375 L 160.578125 150.789062 L 138.191406 137.597656 Z M 164.375 175.871094 L 186.660156 188.914062 L 190.507812 168.375 L 168.273438 155.285156 Z M 194.40625 193.460938 L 216.492188 206.402344 L 220.238281 185.914062 L 198.203125 172.921875 Z M 224.136719 210.898438 L 246.070312 223.742188 L 249.71875 203.304688 L 227.882812 190.414062 Z M 97.917969 169.125 L 120.703125 182.367188 L 124.75 161.582031 L 102.066406 148.289062 Z M 128.546875 186.964844 L 151.132812 200.105469 L 155.082031 179.371094 L 132.597656 166.226562 Z M 158.929688 204.652344 L 181.3125 217.695312 L 185.210938 197.007812 L 162.875 183.964844 Z M 189.058594 222.140625 L 211.246094 235.03125 L 215.042969 214.398438 L 192.90625 201.453125 Z M 218.9375 239.53125 L 240.976562 252.320312 L 244.671875 231.734375 L 222.738281 218.894531 Z M 92.121094 198.207031 L 115.007812 211.398438 L 119.105469 190.460938 L 96.320312 177.222656 Z M 122.902344 215.945312 L 145.585938 229.035156 L 149.585938 208.152344 L 126.949219 195.058594 Z M 153.382812 233.582031 L 175.867188 246.574219 L 179.765625 225.738281 L 157.328125 212.746094 Z M 183.664062 251.023438 L 205.949219 263.914062 L 209.746094 243.128906 L 187.511719 230.234375 Z M 213.644531 268.359375 L 235.726562 281.101562 L 239.425781 260.367188 L 217.390625 247.574219 Z M 213.644531 268.359375 " fill-opacity="1" fill-rule="nonzero"/><g clip-path="url(#964f3e8f74)"><path fill="#000000" d="M 303.382812 273.757812 L 279.5 154.585938 L 254.015625 139.894531 C 254.566406 137.648438 254.867188 135.449219 254.867188 133.347656 C 254.867188 127.203125 252.367188 122.257812 248.019531 119.757812 C 243.671875 117.261719 238.078125 117.558594 232.679688 120.707031 C 230.882812 121.757812 229.132812 123.105469 227.484375 124.65625 L 157.878906 84.382812 C 158.480469 82.03125 158.828125 79.734375 158.828125 77.535156 C 158.828125 71.390625 156.332031 66.445312 151.984375 63.945312 C 147.636719 61.445312 142.039062 61.746094 136.644531 64.894531 C 134.746094 65.992188 132.945312 67.394531 131.246094 69.042969 L 114.207031 59.148438 L 105.964844 63.945312 L 99.367188 98.671875 L 77.730469 213.246094 L 242.722656 308.535156 L 260.0625 284.300781 Z M 300.785156 272.058594 L 260.363281 281.902344 L 274.804688 157.882812 L 276.203125 157.035156 L 277.550781 156.234375 Z M 275.453125 154.835938 L 275.050781 155.085938 L 271.503906 157.132812 L 234.078125 135.5 C 234.980469 134.398438 235.929688 133.398438 236.925781 132.550781 Z M 238.925781 131.152344 C 240.773438 130.101562 241.824219 130.203125 241.972656 130.25 C 242.125 130.351562 242.722656 131.199219 242.722656 133.300781 Z M 233.878906 122.605469 C 236.527344 121.109375 239.175781 120.308594 241.675781 120.308594 C 243.574219 120.308594 245.371094 120.757812 246.972656 121.65625 C 250.570312 123.753906 252.667969 128.003906 252.667969 133.300781 C 252.667969 135 252.46875 136.796875 252.019531 138.644531 L 244.921875 134.546875 C 244.972656 134.097656 244.972656 133.699219 244.972656 133.300781 C 244.972656 130.851562 244.273438 128.953125 243.125 128.304688 C 241.925781 127.601562 239.925781 127.953125 237.726562 129.203125 C 231.832031 132.601562 226.632812 141.542969 226.632812 148.289062 C 226.632812 150.589844 227.234375 152.335938 228.234375 153.136719 C 229.183594 153.835938 230.480469 153.6875 231.382812 153.4375 C 232.378906 153.1875 233.378906 153.285156 234.28125 153.835938 C 235.179688 154.335938 235.777344 155.183594 236.078125 156.183594 C 236.328125 157.183594 236.226562 158.183594 235.679688 159.082031 C 235.179688 159.980469 234.328125 160.582031 233.328125 160.882812 C 229.683594 161.832031 226.132812 161.28125 223.488281 159.234375 C 220.539062 156.933594 218.890625 153.085938 218.890625 148.339844 C 218.9375 138.746094 225.484375 127.453125 233.878906 122.605469 Z M 225.933594 126.253906 C 225.035156 127.253906 224.1875 128.304688 223.386719 129.402344 L 137.84375 79.984375 C 138.691406 78.886719 139.640625 77.886719 140.640625 76.988281 Z M 142.589844 75.539062 C 142.640625 75.488281 142.6875 75.4375 142.789062 75.4375 C 144.6875 74.339844 145.738281 74.4375 145.9375 74.488281 C 146.085938 74.589844 146.6875 75.4375 146.6875 77.535156 C 146.6875 77.636719 146.6875 77.734375 146.6875 77.835938 Z M 137.792969 66.84375 C 140.441406 65.34375 143.089844 64.542969 145.585938 64.542969 C 147.484375 64.542969 149.285156 64.996094 150.882812 65.894531 C 154.480469 67.992188 156.582031 72.238281 156.582031 77.535156 C 156.582031 79.234375 156.378906 81.035156 155.929688 82.882812 L 148.835938 78.785156 C 148.886719 78.335938 148.886719 77.9375 148.886719 77.535156 C 148.886719 75.085938 148.1875 73.1875 147.035156 72.539062 C 145.835938 71.839844 143.839844 72.191406 141.640625 73.4375 C 135.742188 76.835938 130.546875 85.78125 130.546875 92.527344 C 130.546875 94.824219 131.148438 96.574219 132.144531 97.375 C 133.09375 98.074219 134.394531 97.921875 135.292969 97.671875 C 136.292969 97.421875 137.292969 97.523438 138.191406 98.074219 C 139.089844 98.574219 139.691406 99.421875 139.992188 100.421875 C 140.242188 101.421875 140.140625 102.417969 139.589844 103.320312 C 139.089844 104.21875 138.242188 104.816406 137.242188 105.117188 C 133.59375 106.117188 130.046875 105.519531 127.398438 103.46875 C 124.453125 101.171875 122.800781 97.324219 122.800781 92.578125 C 122.902344 82.984375 129.449219 71.691406 137.792969 66.84375 Z M 114.207031 61.746094 L 129.699219 70.691406 C 128.796875 71.691406 128 72.738281 127.199219 73.839844 L 110.261719 64.046875 Z M 107.960938 65.445312 L 125.898438 75.789062 C 122.652344 80.984375 120.652344 87.03125 120.652344 92.527344 C 120.652344 98.023438 122.601562 102.519531 126.148438 105.21875 C 128.347656 106.917969 131.046875 107.816406 133.945312 107.816406 C 135.246094 107.816406 136.59375 107.617188 137.941406 107.265625 C 138.292969 107.167969 138.691406 107.015625 138.992188 106.867188 C 139.242188 107.066406 139.492188 107.214844 139.742188 107.417969 C 142.9375 109.265625 145.539062 107.765625 145.539062 104.117188 C 145.539062 100.472656 142.9375 95.972656 139.742188 94.125 C 137.144531 92.625 134.945312 93.324219 134.195312 95.625 C 133.84375 95.675781 133.59375 95.625 133.546875 95.574219 C 133.34375 95.425781 132.847656 94.574219 132.847656 92.527344 C 132.847656 89.226562 134.292969 85.28125 136.492188 81.882812 L 222.136719 131.351562 C 218.839844 136.597656 216.742188 142.742188 216.742188 148.339844 C 216.742188 153.835938 218.691406 158.332031 222.238281 161.03125 C 224.4375 162.730469 227.132812 163.628906 230.03125 163.628906 C 231.332031 163.628906 232.679688 163.429688 234.03125 163.078125 C 234.378906 162.980469 234.679688 162.878906 234.980469 162.730469 C 235.277344 162.980469 235.578125 163.179688 235.878906 163.328125 C 239.078125 165.179688 241.675781 163.679688 241.675781 160.03125 C 241.675781 156.382812 239.078125 151.886719 235.878906 150.039062 C 233.328125 148.589844 231.179688 149.1875 230.382812 151.386719 C 229.980469 151.4375 229.730469 151.386719 229.683594 151.386719 C 229.484375 151.238281 228.984375 150.386719 228.984375 148.339844 C 228.984375 144.992188 230.480469 140.894531 232.730469 137.445312 L 269.65625 158.78125 L 264.410156 186.613281 L 102.714844 93.324219 Z M 80.230469 212.097656 L 102.214844 95.675781 L 263.808594 188.964844 L 263.460938 190.8125 L 241.824219 305.4375 Z M 131.597656 132.398438 L 106.960938 117.859375 L 102.367188 140.84375 L 127.097656 155.335938 Z M 104.914062 139.695312 L 108.5625 121.40625 L 129.097656 133.5 L 125.5 151.789062 Z M 161.828125 150.1875 L 137.34375 135.746094 L 132.894531 158.734375 L 157.429688 173.125 Z M 135.394531 157.582031 L 138.941406 139.34375 L 159.277344 151.335938 L 155.78125 169.574219 Z M 191.757812 167.875 L 167.472656 153.585938 L 163.125 176.519531 L 187.511719 190.8125 Z M 165.625 175.320312 L 169.070312 157.132812 L 189.207031 169.027344 L 185.8125 187.214844 Z M 221.488281 185.367188 L 197.402344 171.175781 L 193.15625 194.058594 L 217.339844 208.25 Z M 195.65625 192.910156 L 199.050781 174.773438 L 219.039062 186.515625 L 215.742188 204.652344 Z M 222.886719 211.5 L 246.871094 225.589844 L 250.96875 202.753906 L 227.035156 188.664062 Z M 248.46875 203.902344 L 245.222656 221.992188 L 225.386719 210.347656 L 228.683594 192.261719 Z M 101.214844 146.539062 L 96.621094 169.675781 L 121.453125 184.117188 L 125.949219 161.03125 Z M 119.855469 180.617188 L 99.167969 168.578125 L 102.816406 150.136719 L 123.453125 162.230469 Z M 131.746094 164.429688 L 127.25 187.515625 L 151.882812 201.855469 L 156.28125 178.769531 Z M 150.285156 198.308594 L 129.796875 186.363281 L 133.394531 167.976562 L 153.832031 179.917969 Z M 162.027344 182.117188 L 157.628906 205.203125 L 182.113281 219.441406 L 186.410156 196.410156 Z M 180.464844 215.84375 L 160.179688 204.054688 L 163.675781 185.714844 L 183.914062 197.558594 Z M 192.058594 199.707031 L 187.761719 222.742188 L 212.042969 236.882812 L 216.242188 213.898438 Z M 210.394531 233.285156 L 190.257812 221.589844 L 193.65625 203.304688 L 213.691406 215.046875 Z M 217.640625 240.128906 L 241.722656 254.171875 L 245.820312 231.183594 L 221.789062 217.144531 Z M 243.375 232.335938 L 240.125 250.574219 L 220.1875 238.980469 L 223.535156 220.742188 Z M 90.875 198.757812 L 115.808594 213.148438 L 120.355469 189.914062 L 95.519531 175.472656 Z M 117.804688 191.0625 L 114.15625 209.648438 L 93.371094 197.65625 L 97.070312 179.070312 Z M 121.601562 216.546875 L 146.335938 230.835938 L 150.785156 207.601562 L 126.101562 193.261719 Z M 148.285156 208.75 L 144.738281 227.289062 L 124.152344 215.394531 L 127.75 196.859375 Z M 152.132812 234.132812 L 176.667969 248.324219 L 181.015625 225.140625 L 156.53125 210.949219 Z M 178.515625 226.289062 L 175.066406 244.777344 L 154.679688 232.984375 L 158.179688 214.496094 Z M 182.414062 251.621094 L 206.796875 265.710938 L 211.042969 242.578125 L 186.761719 228.488281 Z M 208.496094 243.726562 L 205.097656 262.164062 L 184.863281 250.472656 L 188.308594 232.035156 Z M 212.394531 268.960938 L 236.578125 282.953125 L 240.726562 259.867188 L 216.589844 245.875 Z M 238.226562 260.964844 L 234.929688 279.355469 L 214.890625 267.8125 L 218.238281 249.421875 Z M 238.226562 260.964844 " fill-opacity="1" fill-rule="nonzero"/></g></svg>