<svg xmlns="http://www.w3.org/2000/svg" xmlns:xlink="http://www.w3.org/1999/xlink" width="500" zoomAndPan="magnify" viewBox="0 0 375 374.999991" height="500" preserveAspectRatio="xMidYMid meet" version="1.0"><defs><clipPath id="d4953de4c7"><path d="M 50 24.914062 L 325 24.914062 L 325 350.414062 L 50 350.414062 Z M 50 24.914062 " clip-rule="nonzero"/></clipPath></defs><g clip-path="url(#d4953de4c7)"><path fill="#000000" d="M 73.160156 24.886719 C 149.421875 24.886719 225.679688 24.886719 301.941406 24.886719 L 325 24.886719 L 325 350.40625 L 50.101562 350.40625 L 50.101562 24.886719 Z M 73.160156 29.214844 C 149.421875 29.214844 225.679688 29.214844 301.941406 29.214844 L 320.675781 29.214844 L 320.675781 346.082031 L 54.425781 346.082031 L 54.425781 29.214844 L 73.160156 29.214844 " fill-opacity="1" fill-rule="evenodd"/></g><path fill="#000000" d="M 70.996094 146.554688 L 70.996094 45.800781 C 148.699219 45.800781 226.402344 45.800781 304.101562 45.800781 L 304.101562 329.5 C 226.402344 329.5 148.699219 329.5 70.996094 329.5 L 70.996094 146.554688 " fill-opacity="1" fill-rule="evenodd"/><path fill="#c6dadb" d="M 223.375 325.082031 L 182.4375 204.324219 L 181.800781 325.082031 C 195.65625 325.082031 209.519531 325.082031 223.375 325.082031 " fill-opacity="1" fill-rule="evenodd"/><path fill="#fa9397" d="M 147.496094 325.082031 C 157.746094 325.082031 167.992188 325.082031 178.242188 325.082031 L 178.8125 217.484375 L 147.496094 325.082031 " fill-opacity="1" fill-rule="evenodd"/><path fill="#95c4be" d="M 143.792969 325.082031 L 174.410156 219.878906 L 123.070312 325.082031 C 129.976562 325.082031 136.886719 325.082031 143.792969 325.082031 " fill-opacity="1" fill-rule="evenodd"/><path fill="#ffd0a6" d="M 119.113281 325.082031 L 174.472656 211.636719 L 75.410156 317.136719 L 75.410156 325.082031 C 89.976562 325.082031 104.542969 325.082031 119.113281 325.082031 " fill-opacity="1" fill-rule="evenodd"/><path fill="#fa9397" d="M 75.410156 281.753906 L 75.410156 311.9375 L 181.375 199.085938 L 180.515625 197.953125 L 75.410156 281.753906 " fill-opacity="1" fill-rule="evenodd"/><path fill="#95c4be" d="M 75.410156 277.207031 L 176.453125 196.644531 L 75.410156 229.40625 Z M 75.410156 277.207031 " fill-opacity="1" fill-rule="evenodd"/><path fill="#ffd0a6" d="M 75.410156 193.875 L 75.410156 225.671875 L 174.421875 193.566406 Z M 75.410156 193.875 " fill-opacity="1" fill-rule="evenodd"/><path fill="#c6dadb" d="M 75.410156 147.84375 L 75.410156 190.320312 L 169.222656 190.027344 Z M 75.410156 147.84375 " fill-opacity="1" fill-rule="evenodd"/><path fill="#fa9397" d="M 75.410156 104.851562 L 75.410156 143.945312 L 166.445312 184.882812 Z M 75.410156 104.851562 " fill-opacity="1" fill-rule="evenodd"/><path fill="#fa9397" d="M 75.410156 100.117188 L 167.992188 181.503906 L 75.410156 59.902344 Z M 75.410156 100.117188 " fill-opacity="1" fill-rule="evenodd"/><path fill="#95c4be" d="M 124.507812 50.210938 C 108.144531 50.210938 91.773438 50.210938 75.410156 50.210938 L 75.410156 54.03125 L 180.792969 192.445312 L 124.507812 50.210938 " fill-opacity="1" fill-rule="evenodd"/><path fill="#ffd0a6" d="M 159.515625 50.210938 C 149.125 50.210938 138.730469 50.210938 128.335938 50.210938 L 181.457031 184.460938 L 159.515625 50.210938 " fill-opacity="1" fill-rule="evenodd"/><path fill="#c6dadb" d="M 163.121094 50.210938 L 184.234375 179.410156 L 186.167969 50.210938 C 178.484375 50.210938 170.800781 50.210938 163.121094 50.210938 " fill-opacity="1" fill-rule="evenodd"/><path fill="#fa9397" d="M 229.722656 50.210938 C 216.390625 50.210938 203.058594 50.210938 189.722656 50.210938 L 187.699219 185.816406 L 187.90625 185.578125 L 229.722656 50.210938 " fill-opacity="1" fill-rule="evenodd"/><path fill="#95c4be" d="M 266.054688 50.210938 C 255.183594 50.210938 244.316406 50.210938 233.445312 50.210938 L 197.179688 167.628906 L 266.054688 50.210938 " fill-opacity="1" fill-rule="evenodd"/><path fill="#ffd0a6" d="M 270.179688 50.210938 L 196.613281 175.621094 L 299.691406 57.6875 L 299.691406 50.210938 C 289.855469 50.210938 280.019531 50.210938 270.179688 50.210938 " fill-opacity="1" fill-rule="evenodd"/><path fill="#c6dadb" d="M 299.691406 114.117188 L 299.691406 63.09375 L 187.617188 191.316406 L 187.609375 191.867188 L 299.691406 114.117188 " fill-opacity="1" fill-rule="evenodd"/><path fill="#fa9397" d="M 299.691406 143.789062 L 299.691406 118.449219 L 200.757812 187.074219 Z M 299.691406 143.789062 " fill-opacity="1" fill-rule="evenodd"/><path fill="#95c4be" d="M 299.691406 147.671875 L 200.019531 191.277344 L 299.691406 176.054688 Z M 299.691406 147.671875 " fill-opacity="1" fill-rule="evenodd"/><path fill="#ffd0a6" d="M 299.691406 215.695312 L 299.691406 179.648438 L 195.28125 195.597656 Z M 299.691406 215.695312 " fill-opacity="1" fill-rule="evenodd"/><path fill="#c6dadb" d="M 299.691406 219.3125 L 196.8125 199.515625 L 299.691406 271.472656 Z M 299.691406 219.3125 " fill-opacity="1" fill-rule="evenodd"/><path fill="#fa9397" d="M 299.691406 300.941406 L 299.691406 275.8125 L 187.523438 197.359375 L 187.503906 198.964844 L 299.691406 300.941406 " fill-opacity="1" fill-rule="evenodd"/><path fill="#95c4be" d="M 299.691406 305.746094 L 193.710938 209.414062 L 281.777344 325.082031 C 287.75 325.082031 293.71875 325.082031 299.691406 325.082031 L 299.691406 305.746094 " fill-opacity="1" fill-rule="evenodd"/><path fill="#ffd0a6" d="M 227.128906 325.082031 C 243.855469 325.082031 260.582031 325.082031 277.304688 325.082031 L 186.859375 206.285156 L 227.128906 325.082031 " fill-opacity="1" fill-rule="evenodd"/><path fill="#000000" d="M 197.792969 261.960938 L 183.574219 232.863281 L 162.421875 229.8125 L 148.378906 210.460938 L 138.816406 180.761719 L 126.039062 179.515625 L 137.78125 164.738281 L 153.316406 166.074219 L 162.40625 176.800781 L 202.734375 116.15625 L 206.824219 148.839844 L 240.050781 114.046875 L 249.0625 148.140625 L 247.019531 149.410156 L 242.636719 180.128906 L 237.496094 180.945312 L 230.414062 200.828125 L 224.726562 200.75 L 227.042969 201.367188 L 202.660156 214.816406 L 237.828125 228.382812 L 227.988281 240.246094 L 211.5625 253.660156 L 197.792969 261.960938 " fill-opacity="1" fill-rule="evenodd"/><path fill="#ffffff" d="M 209.847656 250.53125 L 200.441406 243.320312 L 206.476562 253.058594 L 199.328125 257.058594 L 185.925781 229.632812 L 164.402344 226.53125 L 151.566406 208.84375 L 141.464844 177.472656 L 132.839844 176.628906 L 139.363281 168.417969 L 151.566406 169.472656 L 163.421875 183.457031 L 174.707031 187.578125 L 238.246094 121.046875 L 244.980469 146.519531 L 226.042969 158.3125 L 242.878906 153.46875 L 239.511719 177.050781 L 218.261719 180.417969 L 233.410156 181.894531 L 227.9375 197.261719 L 196.167969 196.84375 L 217.628906 202.527344 L 194.320312 215.386719 L 231.9375 229.898438 L 225.203125 237.898438 L 210.265625 231.160156 L 222.679688 240.425781 L 216.367188 245.476562 L 203.953125 236.425781 L 213.839844 246.953125 Z M 164.507812 180.015625 L 200.410156 126.027344 L 203.660156 152.007812 L 173.707031 183.375 L 164.507812 180.015625 " fill-opacity="1" fill-rule="evenodd"/></svg>